<svg xmlns="http://www.w3.org/2000/svg" viewBox="0 0 1920 1080" preserveAspectRatio="xMidYMid slice" aria-hidden="true">
  <defs>
    <linearGradient id="gdBg" x1="0%" y1="100%" x2="100%" y2="0%">
      <stop offset="0%" stop-color="#071a2e"/>
      <stop offset="100%" stop-color="#0B2A45"/>
    </linearGradient>
    <radialGradient id="gdStar" cx="50%" cy="50%" r="50%">
      <stop offset="0%" stop-color="#F2C14E" stop-opacity="0.85"/>
      <stop offset="100%" stop-color="#F2C14E" stop-opacity="0"/>
    </radialGradient>
  </defs>
  <rect width="1920" height="1080" fill="url(#gdBg)"/>
  <g fill="#F2C14E" opacity="0.38">
    <circle cx="240" cy="180" r="2"/><circle cx="412" cy="320" r="1.5"/><circle cx="580" cy="140" r="2.5"/>
    <circle cx="720" cy="400" r="1.5"/><circle cx="890" cy="220" r="2"/><circle cx="1040" cy="360" r="1"/>
    <circle cx="1180" cy="160" r="2"/><circle cx="1320" cy="440" r="1.5"/><circle cx="1480" cy="280" r="2.5"/>
    <circle cx="1620" cy="120" r="1.5"/><circle cx="1760" cy="380" r="2"/><circle cx="320" cy="560" r="1"/>
    <circle cx="520" cy="680" r="2"/><circle cx="780" cy="600" r="1.5"/><circle cx="980" cy="780" r="2"/>
    <circle cx="1200" cy="640" r="1"/><circle cx="1420" cy="720" r="2.5"/><circle cx="1640" cy="560" r="1.5"/>
    <circle cx="180" cy="840" r="2"/><circle cx="400" cy="920" r="1.5"/><circle cx="640" cy="880" r="1"/>
    <circle cx="900" cy="960" r="2"/><circle cx="1140" cy="900" r="1.5"/><circle cx="1380" cy="980" r="2"/>
    <circle cx="1580" cy="840" r="1.5"/><circle cx="1780" cy="920" r="1"/>
  </g>
  <g stroke="#F2C14E" stroke-opacity="0.11" stroke-width="1" fill="none">
    <path d="M200 200 Q 480 120 760 220 T 1320 180"/>
    <path d="M120 720 Q 520 640 920 780 T 1720 700"/>
    <path d="M400 1000 Q 960 880 1520 1000"/>
  </g>
  <circle cx="960" cy="480" r="120" fill="url(#gdStar)" opacity="0.14"/>
</svg>
