<?xml version="1.0" encoding="UTF-8"?>
<svg xmlns="http://www.w3.org/2000/svg" viewBox="0 0 512 512" role="img" aria-label="Vega navigation star">
  <defs>
    <radialGradient id="bg" cx="28%" cy="22%" r="78%">
      <stop offset="0%" stop-color="#1a2332"/>
      <stop offset="55%" stop-color="#0B2A45"/>
      <stop offset="100%" stop-color="#071a2e"/>
    </radialGradient>
    <linearGradient id="starFace" x1="0%" y1="0%" x2="100%" y2="100%">
      <stop offset="0%" stop-color="#3d9ca3"/>
      <stop offset="35%" stop-color="#1F6F7A"/>
      <stop offset="70%" stop-color="#1a5c66"/>
      <stop offset="100%" stop-color="#134850"/>
    </linearGradient>
    <linearGradient id="ring" x1="0%" y1="50%" x2="100%" y2="50%">
      <stop offset="0%" stop-color="#0B2A45" stop-opacity="0.35"/>
      <stop offset="50%" stop-color="#1F6F7A" stop-opacity="0.9"/>
      <stop offset="100%" stop-color="#0B2A45" stop-opacity="0.35"/>
    </linearGradient>
    <filter id="glow" x="-40%" y="-40%" width="180%" height="180%">
      <feGaussianBlur stdDeviation="4" result="b"/>
      <feMerge>
        <feMergeNode in="b"/>
        <feMergeNode in="SourceGraphic"/>
      </feMerge>
    </filter>
  </defs>
  <circle cx="256" cy="256" r="256" fill="url(#bg)"/>
  <path fill="none" stroke="#1F6F7A" stroke-width="1.5" stroke-opacity="0.3" d="M 56 320 Q 256 280 456 320"/>
  <circle cx="256" cy="256" r="198" fill="none" stroke="url(#ring)" stroke-width="2.5" opacity="0.95"/>
  <g stroke="#1F6F7A" stroke-width="3" stroke-linecap="round" opacity="0.6">
    <line x1="256" y1="58" x2="256" y2="88"/>
    <line x1="256" y1="424" x2="256" y2="454"/>
    <line x1="58" y1="256" x2="88" y2="256"/>
    <line x1="424" y1="256" x2="454" y2="256"/>
  </g>
  <g filter="url(#glow)">
    <path fill="url(#starFace)" d="M 256 108 L 278 228 L 404 256 L 278 284 L 256 404 L 234 284 L 108 256 L 234 228 Z"/>
  </g>
  <circle cx="256" cy="256" r="28" fill="#F2C14E" opacity="0.2"/>
  <circle cx="256" cy="256" r="12" fill="#FFFFFF" opacity="0.45"/>
</svg>
